<svg class="plot" fill="currentColor" font-family="system-ui, sans-serif" font-size="10" text-anchor="middle" width="640" height="240" viewBox="0 0 640 240" xmlns="http://www.w3.org/2000/svg" xmlns:xlink="http://www.w3.org/1999/xlink">
  <style>
    :where(.plot) {
      --plot-background: white;
      display: block;
      height: auto;
      height: intrinsic;
      max-width: 100%;
    }

    :where(.plot text),
    :where(.plot tspan) {
      white-space: pre;
    }
  </style>
  <g aria-label="fy-axis tick label" transform="translate(9.5,0.5)">
    <g text-anchor="start" transform="translate(0,1)">
      <text transform="translate(570,49.5)" y="0.32em">Biscoe</text>
    </g>
    <g text-anchor="start" transform="translate(0,66)">
      <text transform="translate(570,49.5)" y="0.32em">Dream</text>
    </g>
    <g text-anchor="start" transform="translate(0,131)">
      <text transform="translate(570,49.5)" y="0.32em">Torgersen</text>
    </g>
  </g>
  <g aria-label="fy-axis label" transform="translate(67.5,0.5)">
    <text transform="translate(570,115.5) rotate(-90)">island</text>
  </g>
  <g aria-label="y-axis tick" aria-hidden="true" transform="translate(0,9)">
    <g fill="none" stroke="currentColor" transform="translate(0,1)">
      <path transform="translate(75,22)" d="M0,0L-6,0"></path>
      <path transform="translate(75,41)" d="M0,0L-6,0"></path>
      <path transform="translate(75,60)" d="M0,0L-6,0"></path>
    </g>
    <g fill="none" stroke="currentColor" transform="translate(0,66)">
      <path transform="translate(75,22)" d="M0,0L-6,0"></path>
      <path transform="translate(75,41)" d="M0,0L-6,0"></path>
      <path transform="translate(75,60)" d="M0,0L-6,0"></path>
    </g>
    <g fill="none" stroke="currentColor" transform="translate(0,131)">
      <path transform="translate(75,22)" d="M0,0L-6,0"></path>
      <path transform="translate(75,41)" d="M0,0L-6,0"></path>
      <path transform="translate(75,60)" d="M0,0L-6,0"></path>
    </g>
  </g>
  <g aria-label="y-axis tick label" transform="translate(-8.5,9)">
    <g text-anchor="end" transform="translate(0,1)">
      <text transform="translate(75,22)" y="0.32em">Adelie</text>
      <text transform="translate(75,41)" y="0.32em">Chinstrap</text>
      <text transform="translate(75,60)" y="0.32em">Gentoo</text>
    </g>
    <g text-anchor="end" transform="translate(0,66)">
      <text transform="translate(75,22)" y="0.32em">Adelie</text>
      <text transform="translate(75,41)" y="0.32em">Chinstrap</text>
      <text transform="translate(75,60)" y="0.32em">Gentoo</text>
    </g>
    <g text-anchor="end" transform="translate(0,131)">
      <text transform="translate(75,22)" y="0.32em">Adelie</text>
      <text transform="translate(75,41)" y="0.32em">Chinstrap</text>
      <text transform="translate(75,60)" y="0.32em">Gentoo</text>
    </g>
  </g>
  <g aria-label="y-axis label" transform="translate(-71.5,0.5)">
    <text transform="translate(75,115.5) rotate(-90)" y="0.71em">species</text>
  </g>
  <g aria-label="x-axis tick" aria-hidden="true" transform="translate(0.5,0)">
    <g fill="none" stroke="currentColor" transform="translate(0,131)">
      <path transform="translate(75,79)" d="M0,0L0,6"></path>
      <path transform="translate(154.839,79)" d="M0,0L0,6"></path>
      <path transform="translate(234.677,79)" d="M0,0L0,6"></path>
      <path transform="translate(314.516,79)" d="M0,0L0,6"></path>
      <path transform="translate(394.355,79)" d="M0,0L0,6"></path>
      <path transform="translate(474.194,79)" d="M0,0L0,6"></path>
      <path transform="translate(554.032,79)" d="M0,0L0,6"></path>
    </g>
  </g>
  <g aria-label="x-axis tick label" transform="translate(0.5,9.5)">
    <g font-variant="tabular-nums" transform="translate(0,131)">
      <text transform="translate(75,79)" y="0.71em">0</text>
      <text transform="translate(154.839,79)" y="0.71em">20</text>
      <text transform="translate(234.677,79)" y="0.71em">40</text>
      <text transform="translate(314.516,79)" y="0.71em">60</text>
      <text transform="translate(394.355,79)" y="0.71em">80</text>
      <text transform="translate(474.194,79)" y="0.71em">100</text>
      <text transform="translate(554.032,79)" y="0.71em">120</text>
    </g>
  </g>
  <g aria-label="x-axis label" text-anchor="end" transform="translate(37.5,27.5)">
    <text transform="translate(570,210)">Frequency →</text>
  </g>
  <g aria-label="bar">
    <g transform="translate(0,1)">
      <rect fill="#4269d0" x="75" y="22" width="87.823" height="17"></rect>
      <rect fill="#4269d0" x="75" y="60" width="231.532" height="17"></rect>
      <rect fill="#efb118" x="162.823" y="22" width="87.823" height="17"></rect>
      <rect fill="#efb118" x="306.532" y="60" width="243.508" height="17"></rect>
      <rect fill="#ff725c" x="550.04" y="60" width="19.96" height="17"></rect>
    </g>
    <g transform="translate(0,66)">
      <rect fill="#4269d0" x="75" y="22" width="107.782" height="17"></rect>
      <rect fill="#4269d0" x="75" y="41" width="135.726" height="17"></rect>
      <rect fill="#efb118" x="182.782" y="22" width="111.774" height="17"></rect>
      <rect fill="#efb118" x="210.726" y="41" width="135.726" height="17"></rect>
      <rect fill="#ff725c" x="294.556" y="22" width="3.992" height="17"></rect>
    </g>
    <g transform="translate(0,131)">
      <rect fill="#efb118" x="75" y="22" width="91.815" height="17"></rect>
      <rect fill="#4269d0" x="166.815" y="22" width="95.806" height="17"></rect>
      <rect fill="#ff725c" x="262.621" y="22" width="19.96" height="17"></rect>
    </g>
  </g>
  <g aria-label="frame" transform="translate(0.5,0.5)">
    <rect fill="none" stroke="currentColor" transform="translate(0,1)" x="75" y="20" width="495" height="59"></rect>
    <rect fill="none" stroke="currentColor" transform="translate(0,66)" x="75" y="20" width="495" height="59"></rect>
    <rect fill="none" stroke="currentColor" transform="translate(0,131)" x="75" y="20" width="495" height="59"></rect>
  </g>
  <g aria-label="text" transform="translate(-3.5,4.5)">
    <g text-anchor="end" transform="translate(0,131)">
      <text transform="translate(570,20)" y="0.71em">Torgersen Island only has Adelie penguins!</text>
    </g>
  </g>
</svg>