<svg class="plot" fill="currentColor" font-family="system-ui, sans-serif" font-size="10" text-anchor="middle" width="640" height="60" viewBox="0 0 640 60" xmlns="http://www.w3.org/2000/svg" xmlns:xlink="http://www.w3.org/1999/xlink">
  <style>
    :where(.plot) {
      --plot-background: white;
      display: block;
      height: auto;
      height: intrinsic;
      max-width: 100%;
    }

    :where(.plot text),
    :where(.plot tspan) {
      white-space: pre;
    }
  </style>
  <g aria-label="x-axis tick" aria-hidden="true" fill="none" stroke="currentColor" transform="translate(0.5,0)">
    <path transform="translate(24.156,30)" d="M0,0L0,6"></path>
    <path transform="translate(146.406,30)" d="M0,0L0,6"></path>
    <path transform="translate(268.655,30)" d="M0,0L0,6"></path>
    <path transform="translate(390.905,30)" d="M0,0L0,6"></path>
    <path transform="translate(513.154,30)" d="M0,0L0,6"></path>
  </g>
  <g aria-label="x-axis tick label" font-variant="tabular-nums" transform="translate(0.5,9.5)">
    <text transform="translate(24.156,30)" y="0.71em">155</text>
    <text transform="translate(146.406,30)" y="0.71em">160</text>
    <text transform="translate(268.655,30)" y="0.71em">165</text>
    <text transform="translate(390.905,30)" y="0.71em">170</text>
    <text transform="translate(513.154,30)" y="0.71em">175</text>
  </g>
  <g aria-label="rule" stroke="currentColor" transform="translate(0,0.5)">
    <line x1="20" x2="620" y1="15" y2="15"></line>
  </g>
  <g aria-label="bar" fill="light-dark(#ccc, #555)">
    <rect x="309.059" y="0" width="232.396" height="30"></rect>
  </g>
  <g aria-label="tick" stroke="currentColor" stroke-width="2" transform="translate(0.5,0)">
    <line x1="452.885" x2="452.885" y1="0" y2="30"></line>
  </g>
</svg>