<svg class="plot" fill="currentColor" font-family="system-ui, sans-serif" font-size="10" text-anchor="middle" width="640" height="110" viewBox="0 0 640 110" xmlns="http://www.w3.org/2000/svg" xmlns:xlink="http://www.w3.org/1999/xlink">
  <style>
    :where(.plot) {
      --plot-background: white;
      display: block;
      height: auto;
      height: intrinsic;
      max-width: 100%;
    }

    :where(.plot text),
    :where(.plot tspan) {
      white-space: pre;
    }
  </style>
  <g aria-label="fx-axis tick label" transform="translate(0.5,-8.5)">
    <g transform="translate(1,0)">
      <text transform="translate(162,30)"><tspan x="0" y="-1em">Jan</tspan><tspan x="0" dy="1em">1</tspan></text>
    </g>
    <g transform="translate(316,0)">
      <text transform="translate(162,30)">2</text>
    </g>
  </g>
  <g aria-label="x-axis tick" aria-hidden="true" transform="translate(0.5,0)">
    <g fill="none" stroke="currentColor" transform="translate(1,0)">
      <path transform="translate(162,80)" d="M0,0L0,6"></path>
    </g>
    <g fill="none" stroke="currentColor" transform="translate(316,0)">
      <path transform="translate(162,80)" d="M0,0L0,6"></path>
    </g>
  </g>
  <g aria-label="x-axis tick label" transform="translate(0.5,9.5)">
    <g font-variant="tabular-nums" transform="translate(1,0)">
      <text transform="translate(162,80)" y="0.71em">0</text>
    </g>
    <g font-variant="tabular-nums" transform="translate(316,0)">
      <text transform="translate(162,80)" y="0.71em">0</text>
    </g>
  </g>
  <g aria-label="tip" transform="translate(0.5,0.5)">
    <g fill="var(--plot-background)" stroke="currentColor" text-anchor="start" transform="translate(1,0)" visibility="hidden">
      <g transform="translate(162,80)">
        <path filter="drop-shadow(0 3px 4px rgba(0,0,0,0.2))" d="M0,0l6,-6h39v-36h-90v36h39z"></path>
        <text fill="currentColor" fill-opacity="1" stroke="none" y="-2.29em" transform="translate(-37,-14)"><tspan x="0" dy="1em">​<tspan font-weight="bold">x</tspan> 0</tspan><tspan x="0" dy="1em">​<tspan font-weight="bold">fx</tspan> 2001-01-01</tspan></text>
      </g>
    </g>
    <g fill="var(--plot-background)" stroke="currentColor" text-anchor="start" transform="translate(316,0)" visibility="hidden">
      <g transform="translate(162,80)">
        <path filter="drop-shadow(0 3px 4px rgba(0,0,0,0.2))" d="M0,0l6,-6h39.5v-36h-91v36h39.5z"></path>
        <text fill="currentColor" fill-opacity="1" stroke="none" y="-2.29em" transform="translate(-37.5,-14)"><tspan x="0" dy="1em">​<tspan font-weight="bold">x</tspan> 0</tspan><tspan x="0" dy="1em">​<tspan font-weight="bold">fx</tspan> 2001-01-02</tspan></text>
      </g>
    </g>
  </g>
</svg>