<svg class="plot" fill="currentColor" font-family="system-ui, sans-serif" font-size="10" text-anchor="middle" width="640" height="430" viewBox="0 0 640 430" xmlns="http://www.w3.org/2000/svg" xmlns:xlink="http://www.w3.org/1999/xlink">
  <style>
    :where(.plot) {
      --plot-background: white;
      display: block;
      height: auto;
      height: intrinsic;
      max-width: 100%;
    }

    :where(.plot text),
    :where(.plot tspan) {
      white-space: pre;
    }
  </style>
  <g aria-label="fx-axis tick" aria-hidden="true" transform="translate(0.5,0)">
    <g fill="none" stroke="currentColor" transform="translate(1,0)">
      <path transform="translate(84,400)" d="M0,0L0,6"></path>
    </g>
    <g fill="none" stroke="currentColor" transform="translate(99,0)">
      <path transform="translate(84,400)" d="M0,0L0,6"></path>
    </g>
    <g fill="none" stroke="currentColor" transform="translate(197,0)">
      <path transform="translate(84,400)" d="M0,0L0,6"></path>
    </g>
    <g fill="none" stroke="currentColor" transform="translate(295,0)">
      <path transform="translate(84,400)" d="M0,0L0,6"></path>
    </g>
    <g fill="none" stroke="currentColor" transform="translate(393,0)">
      <path transform="translate(84,400)" d="M0,0L0,6"></path>
    </g>
    <g fill="none" stroke="currentColor" transform="translate(491,0)">
      <path transform="translate(84,400)" d="M0,0L0,6"></path>
    </g>
  </g>
  <g aria-label="fx-axis tick label" transform="translate(0.5,9.5)">
    <g transform="translate(1,0)">
      <text transform="translate(84,400)" y="0.71em">CA</text>
    </g>
    <g transform="translate(99,0)">
      <text transform="translate(84,400)" y="0.71em">TX</text>
    </g>
    <g transform="translate(197,0)">
      <text transform="translate(84,400)" y="0.71em">NY</text>
    </g>
    <g transform="translate(295,0)">
      <text transform="translate(84,400)" y="0.71em">FL</text>
    </g>
    <g transform="translate(393,0)">
      <text transform="translate(84,400)" y="0.71em">PA</text>
    </g>
    <g transform="translate(491,0)">
      <text transform="translate(84,400)" y="0.71em">IL</text>
    </g>
  </g>
  <g aria-label="y-grid" aria-hidden="true" transform="translate(0,0.5)">
    <g stroke="currentColor" stroke-opacity="0.1" transform="translate(1,0)">
      <line x1="40" x2="128" y1="400" y2="400"></line>
      <line x1="40" x2="128" y1="367.295" y2="367.295"></line>
      <line x1="40" x2="128" y1="334.589" y2="334.589"></line>
      <line x1="40" x2="128" y1="301.884" y2="301.884"></line>
      <line x1="40" x2="128" y1="269.179" y2="269.179"></line>
      <line x1="40" x2="128" y1="236.473" y2="236.473"></line>
      <line x1="40" x2="128" y1="203.768" y2="203.768"></line>
      <line x1="40" x2="128" y1="171.063" y2="171.063"></line>
      <line x1="40" x2="128" y1="138.358" y2="138.358"></line>
      <line x1="40" x2="128" y1="105.652" y2="105.652"></line>
      <line x1="40" x2="128" y1="72.947" y2="72.947"></line>
      <line x1="40" x2="128" y1="40.242" y2="40.242"></line>
    </g>
    <g stroke="currentColor" stroke-opacity="0.1" transform="translate(99,0)">
      <line x1="40" x2="128" y1="400" y2="400"></line>
      <line x1="40" x2="128" y1="367.295" y2="367.295"></line>
      <line x1="40" x2="128" y1="334.589" y2="334.589"></line>
      <line x1="40" x2="128" y1="301.884" y2="301.884"></line>
      <line x1="40" x2="128" y1="269.179" y2="269.179"></line>
      <line x1="40" x2="128" y1="236.473" y2="236.473"></line>
      <line x1="40" x2="128" y1="203.768" y2="203.768"></line>
      <line x1="40" x2="128" y1="171.063" y2="171.063"></line>
      <line x1="40" x2="128" y1="138.358" y2="138.358"></line>
      <line x1="40" x2="128" y1="105.652" y2="105.652"></line>
      <line x1="40" x2="128" y1="72.947" y2="72.947"></line>
      <line x1="40" x2="128" y1="40.242" y2="40.242"></line>
    </g>
    <g stroke="currentColor" stroke-opacity="0.1" transform="translate(197,0)">
      <line x1="40" x2="128" y1="400" y2="400"></line>
      <line x1="40" x2="128" y1="367.295" y2="367.295"></line>
      <line x1="40" x2="128" y1="334.589" y2="334.589"></line>
      <line x1="40" x2="128" y1="301.884" y2="301.884"></line>
      <line x1="40" x2="128" y1="269.179" y2="269.179"></line>
      <line x1="40" x2="128" y1="236.473" y2="236.473"></line>
      <line x1="40" x2="128" y1="203.768" y2="203.768"></line>
      <line x1="40" x2="128" y1="171.063" y2="171.063"></line>
      <line x1="40" x2="128" y1="138.358" y2="138.358"></line>
      <line x1="40" x2="128" y1="105.652" y2="105.652"></line>
      <line x1="40" x2="128" y1="72.947" y2="72.947"></line>
      <line x1="40" x2="128" y1="40.242" y2="40.242"></line>
    </g>
    <g stroke="currentColor" stroke-opacity="0.1" transform="translate(295,0)">
      <line x1="40" x2="128" y1="400" y2="400"></line>
      <line x1="40" x2="128" y1="367.295" y2="367.295"></line>
      <line x1="40" x2="128" y1="334.589" y2="334.589"></line>
      <line x1="40" x2="128" y1="301.884" y2="301.884"></line>
      <line x1="40" x2="128" y1="269.179" y2="269.179"></line>
      <line x1="40" x2="128" y1="236.473" y2="236.473"></line>
      <line x1="40" x2="128" y1="203.768" y2="203.768"></line>
      <line x1="40" x2="128" y1="171.063" y2="171.063"></line>
      <line x1="40" x2="128" y1="138.358" y2="138.358"></line>
      <line x1="40" x2="128" y1="105.652" y2="105.652"></line>
      <line x1="40" x2="128" y1="72.947" y2="72.947"></line>
      <line x1="40" x2="128" y1="40.242" y2="40.242"></line>
    </g>
    <g stroke="currentColor" stroke-opacity="0.1" transform="translate(393,0)">
      <line x1="40" x2="128" y1="400" y2="400"></line>
      <line x1="40" x2="128" y1="367.295" y2="367.295"></line>
      <line x1="40" x2="128" y1="334.589" y2="334.589"></line>
      <line x1="40" x2="128" y1="301.884" y2="301.884"></line>
      <line x1="40" x2="128" y1="269.179" y2="269.179"></line>
      <line x1="40" x2="128" y1="236.473" y2="236.473"></line>
      <line x1="40" x2="128" y1="203.768" y2="203.768"></line>
      <line x1="40" x2="128" y1="171.063" y2="171.063"></line>
      <line x1="40" x2="128" y1="138.358" y2="138.358"></line>
      <line x1="40" x2="128" y1="105.652" y2="105.652"></line>
      <line x1="40" x2="128" y1="72.947" y2="72.947"></line>
      <line x1="40" x2="128" y1="40.242" y2="40.242"></line>
    </g>
    <g stroke="currentColor" stroke-opacity="0.1" transform="translate(491,0)">
      <line x1="40" x2="128" y1="400" y2="400"></line>
      <line x1="40" x2="128" y1="367.295" y2="367.295"></line>
      <line x1="40" x2="128" y1="334.589" y2="334.589"></line>
      <line x1="40" x2="128" y1="301.884" y2="301.884"></line>
      <line x1="40" x2="128" y1="269.179" y2="269.179"></line>
      <line x1="40" x2="128" y1="236.473" y2="236.473"></line>
      <line x1="40" x2="128" y1="203.768" y2="203.768"></line>
      <line x1="40" x2="128" y1="171.063" y2="171.063"></line>
      <line x1="40" x2="128" y1="138.358" y2="138.358"></line>
      <line x1="40" x2="128" y1="105.652" y2="105.652"></line>
      <line x1="40" x2="128" y1="72.947" y2="72.947"></line>
      <line x1="40" x2="128" y1="40.242" y2="40.242"></line>
    </g>
  </g>
  <g aria-label="y-axis tick" aria-hidden="true" transform="translate(0,0.5)">
    <g fill="none" stroke="currentColor" transform="translate(1,0)">
      <path transform="translate(40,400)" d="M0,0L-6,0"></path>
      <path transform="translate(40,367.295)" d="M0,0L-6,0"></path>
      <path transform="translate(40,334.589)" d="M0,0L-6,0"></path>
      <path transform="translate(40,301.884)" d="M0,0L-6,0"></path>
      <path transform="translate(40,269.179)" d="M0,0L-6,0"></path>
      <path transform="translate(40,236.473)" d="M0,0L-6,0"></path>
      <path transform="translate(40,203.768)" d="M0,0L-6,0"></path>
      <path transform="translate(40,171.063)" d="M0,0L-6,0"></path>
      <path transform="translate(40,138.358)" d="M0,0L-6,0"></path>
      <path transform="translate(40,105.652)" d="M0,0L-6,0"></path>
      <path transform="translate(40,72.947)" d="M0,0L-6,0"></path>
      <path transform="translate(40,40.242)" d="M0,0L-6,0"></path>
    </g>
  </g>
  <g aria-label="y-axis tick label" transform="translate(-8.5,0.5)">
    <g text-anchor="end" font-variant="tabular-nums" transform="translate(1,0)">
      <text transform="translate(40,400)" y="0.32em">0.0M</text>
      <text transform="translate(40,367.295)" y="0.32em">0.5M</text>
      <text transform="translate(40,334.589)" y="0.32em">1.0M</text>
      <text transform="translate(40,301.884)" y="0.32em">1.5M</text>
      <text transform="translate(40,269.179)" y="0.32em">2.0M</text>
      <text transform="translate(40,236.473)" y="0.32em">2.5M</text>
      <text transform="translate(40,203.768)" y="0.32em">3.0M</text>
      <text transform="translate(40,171.063)" y="0.32em">3.5M</text>
      <text transform="translate(40,138.358)" y="0.32em">4.0M</text>
      <text transform="translate(40,105.652)" y="0.32em">4.5M</text>
      <text transform="translate(40,72.947)" y="0.32em">5.0M</text>
      <text transform="translate(40,40.242)" y="0.32em">5.5M</text>
    </g>
  </g>
  <g aria-label="y-axis label" text-anchor="start" transform="translate(-36.5,-16.5)">
    <text transform="translate(41,20)" y="0.71em">↑ population</text>
  </g>
  <g aria-label="bar">
    <g transform="translate(1,0)">
      <rect fill="#d53e4f" x="44" y="70.433" width="8" height="329.567"><title>&lt;10</title></rect>
      <rect fill="#f46d43" x="53" y="61.805" width="8" height="338.195"><title>10-19</title></rect>
      <rect fill="#fdae61" x="62" y="20" width="8" height="380"><title>20-29</title></rect>
      <rect fill="#fee08b" x="71" y="49.784" width="8" height="350.216"><title>30-39</title></rect>
      <rect fill="#ffffbf" x="80" y="61.222" width="8" height="338.778"><title>40-49</title></rect>
      <rect fill="#e6f598" x="89" y="70.194" width="8" height="329.806"><title>50-59</title></rect>
      <rect fill="#abdda4" x="98" y="155.53" width="8" height="244.47"><title>60-69</title></rect>
      <rect fill="#66c2a5" x="107" y="268.415" width="8" height="131.585"><title>70-79</title></rect>
      <rect fill="#3288bd" x="116" y="314.222" width="8" height="85.778"><title>≥80</title></rect>
    </g>
    <g transform="translate(99,0)">
      <rect fill="#d53e4f" x="44" y="139.464" width="8" height="260.536"><title>&lt;10</title></rect>
      <rect fill="#f46d43" x="53" y="144.21" width="8" height="255.79"><title>10-19</title></rect>
      <rect fill="#fdae61" x="62" y="141.86" width="8" height="258.14"><title>20-29</title></rect>
      <rect fill="#fee08b" x="71" y="153.367" width="8" height="246.633"><title>30-39</title></rect>
      <rect fill="#ffffbf" x="80" y="168.071" width="8" height="231.929"><title>40-49</title></rect>
      <rect fill="#e6f598" x="89" y="181.206" width="8" height="218.794"><title>50-59</title></rect>
      <rect fill="#abdda4" x="98" y="240.954" width="8" height="159.046"><title>60-69</title></rect>
      <rect fill="#66c2a5" x="107" y="315.523" width="8" height="84.477"><title>70-79</title></rect>
      <rect fill="#3288bd" x="116" y="352.108" width="8" height="47.892"><title>≥80</title></rect>
    </g>
    <g transform="translate(197,0)">
      <rect fill="#d53e4f" x="44" y="248.251" width="8" height="151.749"><title>&lt;10</title></rect>
      <rect fill="#f46d43" x="53" y="240.032" width="8" height="159.968"><title>10-19</title></rect>
      <rect fill="#fdae61" x="62" y="210.684" width="8" height="189.316"><title>20-29</title></rect>
      <rect fill="#fee08b" x="71" y="229.582" width="8" height="170.418"><title>30-39</title></rect>
      <rect fill="#ffffbf" x="80" y="228.799" width="8" height="171.201"><title>40-49</title></rect>
      <rect fill="#e6f598" x="89" y="219.753" width="8" height="180.247"><title>50-59</title></rect>
      <rect fill="#abdda4" x="98" y="262.951" width="8" height="137.049"><title>60-69</title></rect>
      <rect fill="#66c2a5" x="107" y="324.12" width="8" height="75.88"><title>70-79</title></rect>
      <rect fill="#3288bd" x="116" y="347.404" width="8" height="52.596"><title>≥80</title></rect>
    </g>
    <g transform="translate(295,0)">
      <rect fill="#d53e4f" x="44" y="255.376" width="8" height="144.624"><title>&lt;10</title></rect>
      <rect fill="#f46d43" x="53" y="247.521" width="8" height="152.479"><title>10-19</title></rect>
      <rect fill="#fdae61" x="62" y="230.074" width="8" height="169.926"><title>20-29</title></rect>
      <rect fill="#fee08b" x="71" y="241.956" width="8" height="158.044"><title>30-39</title></rect>
      <rect fill="#ffffbf" x="80" y="231.53" width="8" height="168.47"><title>40-49</title></rect>
      <rect fill="#e6f598" x="89" y="219.272" width="8" height="180.728"><title>50-59</title></rect>
      <rect fill="#abdda4" x="98" y="242.71" width="8" height="157.29"><title>60-69</title></rect>
      <rect fill="#66c2a5" x="107" y="294.326" width="8" height="105.674"><title>70-79</title></rect>
      <rect fill="#3288bd" x="116" y="333.31" width="8" height="66.69"><title>≥80</title></rect>
    </g>
    <g transform="translate(393,0)">
      <rect fill="#d53e4f" x="44" y="304.57" width="8" height="95.43"><title>&lt;10</title></rect>
      <rect fill="#f46d43" x="53" y="294.819" width="8" height="105.181"><title>10-19</title></rect>
      <rect fill="#fdae61" x="62" y="287.988" width="8" height="112.012"><title>20-29</title></rect>
      <rect fill="#fee08b" x="71" y="300.549" width="8" height="99.451"><title>30-39</title></rect>
      <rect fill="#ffffbf" x="80" y="292.381" width="8" height="107.619"><title>40-49</title></rect>
      <rect fill="#e6f598" x="89" y="276.938" width="8" height="123.062"><title>50-59</title></rect>
      <rect fill="#abdda4" x="98" y="302.438" width="8" height="97.562"><title>60-69</title></rect>
      <rect fill="#66c2a5" x="107" y="344.342" width="8" height="55.658"><title>70-79</title></rect>
      <rect fill="#3288bd" x="116" y="359.768" width="8" height="40.232"><title>≥80</title></rect>
    </g>
    <g transform="translate(491,0)">
      <rect fill="#d53e4f" x="44" y="294.056" width="8" height="105.944"><title>&lt;10</title></rect>
      <rect fill="#f46d43" x="53" y="287.756" width="8" height="112.244"><title>10-19</title></rect>
      <rect fill="#fdae61" x="62" y="282.932" width="8" height="117.068"><title>20-29</title></rect>
      <rect fill="#fee08b" x="71" y="287.366" width="8" height="112.634"><title>30-39</title></rect>
      <rect fill="#ffffbf" x="80" y="288.994" width="8" height="111.006"><title>40-49</title></rect>
      <rect fill="#e6f598" x="89" y="284.003" width="8" height="115.997"><title>50-59</title></rect>
      <rect fill="#abdda4" x="98" y="313.258" width="8" height="86.742"><title>60-69</title></rect>
      <rect fill="#66c2a5" x="107" y="352.327" width="8" height="47.673"><title>70-79</title></rect>
      <rect fill="#3288bd" x="116" y="368.672" width="8" height="31.328"><title>≥80</title></rect>
    </g>
  </g>
  <g aria-label="rule" transform="translate(0,0.5)">
    <g stroke="currentColor" transform="translate(1,0)">
      <line x1="40" x2="128" y1="400" y2="400"></line>
    </g>
    <g stroke="currentColor" transform="translate(99,0)">
      <line x1="40" x2="128" y1="400" y2="400"></line>
    </g>
    <g stroke="currentColor" transform="translate(197,0)">
      <line x1="40" x2="128" y1="400" y2="400"></line>
    </g>
    <g stroke="currentColor" transform="translate(295,0)">
      <line x1="40" x2="128" y1="400" y2="400"></line>
    </g>
    <g stroke="currentColor" transform="translate(393,0)">
      <line x1="40" x2="128" y1="400" y2="400"></line>
    </g>
    <g stroke="currentColor" transform="translate(491,0)">
      <line x1="40" x2="128" y1="400" y2="400"></line>
    </g>
  </g>
</svg>